<?xml version="1.0" encoding="UTF-8"?>
<svg id="Layer_2" data-name="Layer 2" xmlns="http://www.w3.org/2000/svg" viewBox="0 0 46.98 46.98">
  <defs>
    <style>
      .cls-1 {
        fill: #8570a0;
      }

      .cls-2 {
        fill: #eee4f8;
        isolation: isolate;
      }
    </style>
  </defs>
  <g id="icon">
    <g>
      <rect class="cls-2" width="46.98" height="46.98" rx="8.43" ry="8.43"/>
      <g>
        <path class="cls-1" d="M32.09,19.14c-.02-.67.16-2.19-.61-2.57-.39-.19-.85-.15-1.22.04-.06-.87-.3-1.66-.94-2.1-.5-.34-1.13-.49-1.75-.55.03-1.2.3-3.01.01-4.14-.09-.36-.1-.58-.44-.82-.51-.36-1.66-.17-2.23-.17-1,0-2,.04-3,.03-.96,0-1.91-.02-2.86.03-.47.02-1.29-.08-1.67.23-.34.27-.23.65-.23,1.06,0,1.26,0,2.51.01,3.77-.32,0-.63.05-.91.16-1.71.66-1.49,3.51-1.58,4.95-.16,2.63-.14,5.27.03,7.9.09,1.38-.24,4.09,1.2,4.88.36.2.81.3,1.28.35-.03,1.31-.26,2.93,0,4.21.09.44.17.75.58.98.59.33,1.64.15,2.29.15.91,0,1.82-.03,2.73-.03.83,0,1.67.02,2.5-.01.58-.02,1.59.12,2.07-.22.37-.27.27-.66.27-1.09,0-1.29,0-2.58-.02-3.87.02,0,.04,0,.06,0,.62,0,1.26-.06,1.74-.5,1.28-1.2.67-3.61.68-5.12.01-1.74.04-3.48.06-5.21.42.23.93.27,1.42.08.86-.33.56-1.7.54-2.41ZM18.17,9.6c.37-.21,1.34-.07,1.77-.08.66-.02,1.32,0,1.98,0,1.24.01,2.48-.04,3.72-.03,1.09,0,1.28.86,1.28,1.83,0,.87.02,1.74,0,2.61-.07,0-.14,0-.21,0-1.41,0-2.84.06-4.25.09-1.25-.04-2.5,0-3.76,0-.28,0-.59-.02-.9-.04-.05-.99-.44-3.9.37-4.37ZM26.94,34.79c0,.93.2,1.72-.82,2.01-1,.28-2.32.05-3.36.05-1.12,0-2.24.04-3.35.03-.24,0-.69.09-.92,0-.56-.25-.59-1.21-.66-1.69-.13-.93-.03-1.99,0-2.94.45.02.9,0,1.28.02,1.54.06,3.09,0,4.63-.03,1.07-.02,2.14.04,3.2.07.01.83.01,1.66.01,2.49ZM29.43,27.87c.02.42.08.84.08,1.27,0,.99-.38,2.13-1.44,2.52-.85.31-2.53-.1-3.41-.09-1.24,0-2.47.06-3.71.07-.99,0-3.54.3-4.35-.24-1.27-.85-1.15-2.82-1.24-4.15-.07-1.13-.12-2.25-.14-3.38-.04-2.23,0-4.48.25-6.69.13-1.17.49-2.14,1.79-2.53.39-.11,1.02.02,1.44.02,1.25-.01,2.5-.05,3.76,0,1.14-.02,2.27.01,3.41-.05,1.21-.07,2.67-.2,3.3.99.53,1.01.33,2.29.32,3.42,0,1.03-.01,2.07-.02,3.1-.02,1.91-.14,3.85-.03,5.76ZM31.21,20.84c-.31.23-.76.24-1.05-.15-.01-.02-.03-.03-.04-.04,0-.29,0-.59,0-.88,0-.64.12-1.52.14-2.39.01-.01.03-.02.04-.04.23-.3.8-.27.99.02.2.32.11,1.25.13,1.62.01.41.02.82.01,1.22,0,.33.05.42-.23.63Z"/>
        <path class="cls-1" d="M26.64,19.53s-.02-.01-.04-.01c-.02,0-.03,0-.05,0-.01,0-.03,0-.04,0-.01,0-.02,0-.03,0-.81-.07-1.65.25-1.81,1.15-.1.56.15,1.16.58,1.53-.34.57-.79,1.07-1.08,1.67-.03,0-.07-.01-.1-.02-.02,0-.02-.01-.04-.01-.02,0-.03,0-.05,0-.01,0-.03,0-.04,0-.01,0-.02,0-.03,0-.23-.02-.45,0-.67.04-.38-.59-.78-1.15-1.22-1.69.31-.24.55-.56.63-.91.17-.74-.43-1.57-1.17-1.71-.01,0-.02-.01-.04-.01-.02,0-.03,0-.05,0-.01,0-.03,0-.04,0-.01,0-.02,0-.03,0-.81-.07-1.65.25-1.81,1.15-.11.59.17,1.23.65,1.59-.42.51-.86,1.02-1.18,1.6-.03,0-.05-.01-.08-.02-.01,0-.02-.01-.04-.01-.02,0-.03,0-.05,0-.01,0-.03,0-.04,0-.01,0-.02,0-.03,0-.81-.07-1.65.25-1.81,1.15-.15.8.43,1.72,1.25,1.86.79.14,1.71-.5,1.89-1.28.11-.5-.12-1.04-.51-1.38.33-.59.78-1.1,1.2-1.62,0,0,0-.01.01-.02.23.04.48,0,.71-.08,0,.06.03.11.07.17.38.48.74.98,1.07,1.5-.27.19-.47.46-.54.85-.15.8.43,1.72,1.25,1.86.79.14,1.71-.5,1.89-1.28.11-.49-.11-1.02-.49-1.37.3-.6.75-1.11,1.09-1.68.03,0,.06.02.09.03.79.14,1.71-.5,1.89-1.28.17-.74-.43-1.57-1.17-1.71ZM19.38,25.55c-.18.38-.74.72-1.16.6-.43-.12-.73-.68-.65-1.1.11-.52.65-.68,1.12-.62.01,0,.02,0,.04,0,.02,0,.03.01.05.01.47.04.79.7.6,1.1ZM20.8,21.85c-.43-.12-.73-.68-.65-1.1.11-.52.65-.68,1.12-.62.01,0,.02,0,.04,0,.02,0,.03.01.05.01.47.04.79.7.6,1.1-.18.38-.74.72-1.16.6ZM24.54,25.55c-.18.38-.74.72-1.16.6-.43-.12-.73-.68-.65-1.1.11-.52.65-.68,1.12-.62.01,0,.02,0,.04,0,.02,0,.03.01.05.01.47.04.79.7.6,1.1ZM27.11,21.25c-.18.38-.74.72-1.16.6-.42-.12-.73-.68-.65-1.1.11-.52.65-.68,1.12-.62.01,0,.02,0,.04,0,.02,0,.03.01.05.01.47.04.79.7.6,1.1Z"/>
        <path class="cls-1" d="M17.57,16.35c.37-.2.04-.76-.33-.56-1.2.64-1.05,2.36-1,3.52.02.42.67.42.65,0-.03-.87-.23-2.46.68-2.95Z"/>
        <path class="cls-1" d="M18.81,15.73v-.03c0-.42-.65-.42-.65,0v.03c0,.42.65.42.65,0Z"/>
      </g>
    </g>
  </g>
</svg>