<?xml version="1.0" encoding="UTF-8"?>
<svg id="Layer_2" data-name="Layer 2" xmlns="http://www.w3.org/2000/svg" viewBox="0 0 46.98 46.98">
  <defs>
    <style>
      .cls-1 {
        fill: #895b4e;
      }

      .cls-2 {
        fill: #ffc7a1;
        isolation: isolate;
      }
    </style>
  </defs>
  <g id="icon">
    <g>
      <rect class="cls-2" width="46.98" height="46.98" rx="8.43" ry="8.43"/>
      <g>
        <path class="cls-1" d="M40.4,23.61c-.02-.3-.06-.59-.07-.88,0-.34.06-.69-.15-.98-.35-.46-.98-.4-1.51-.39-.02-.78-.03-1.55-.03-2.33,0-.53.18-1.45-.15-1.92-.53-.78-2.1-.68-3.04-.71,0-.13,0-.26-.02-.39-.17-2-1.26-2.31-3.18-2.33-2.12-.02-2.67.73-2.82,2.81-.12,1.64-.16,3.29-.18,4.94-2.02.17-4.18-.07-6.21-.04-1.74.02-3.5.03-5.24.1-.03-1.64-.07-3.27-.19-4.9-.14-2.06-.69-2.83-2.82-2.81-1.48,0-3,.14-3.19,1.83-.03.3-.06.59-.07.9-.92.02-2.37-.06-2.91.62-.69.87-.37,3.17-.38,4.19,0,.03,0,.07,0,.11-.42-.02-.92-.05-1.26.09-.62.26-.39,1.32-.39,1.85,0,.55-.19,1.43.5,1.57.34.07.71.09,1.08.08,0,1.29.08,2.58.36,3.71.36,1.42,1.72,1.41,3.04,1.44.01.18.01.37.03.55.16,1.79,1.14,1.91,2.73,1.94,1.01.02,2.6.37,3.19-.64.35-.6.27-1.64.3-2.31.05-1.44.03-2.88.02-4.31,0-.11,0-.23,0-.34,3.78-.05,7.6.14,11.38-.06-.01,1.28-.02,2.57,0,3.85.01.83-.12,1.89.14,2.68.46,1.35,2.05,1.05,3.25,1.04,1.35-.02,2.47.07,2.79-1.49.06-.32.1-.66.11-1,1.26-.02,2.64-.03,3-1.39.28-1.08.31-2.31.28-3.54.43.02.92,0,1.26-.17.48-.24.39-.9.35-1.36ZM7.36,24.22c-.04-.34,0-.73,0-1.06,0-.21,0-.41,0-.62,0-.05.05-.31-.02-.33.13-.03.42,0,.52-.01.12,0,.25,0,.37,0-.02.67-.04,1.37-.05,2.07-.27.01-.56,0-.81-.05ZM9.25,28.08c-.14-.58-.09-1.28-.12-1.88-.08-1.63-.13-3.26-.11-4.89,0-.96-.1-2.1.13-3.04.26-1.1,1.33-.97,2.36-.99-.03,1.8.14,3.64.1,5.41-.04,2.18-.16,4.49-.07,6.71-1.21-.02-1.95.05-2.29-1.31ZM17.03,30.26c-.06.84.03,1.43-.85,1.64-.49.11-1.23,0-1.72,0-.94-.01-1.82-.43-2.09-1.4-.19-.71.02-1.77.02-2.5-.02-1.77-.05-3.53-.01-5.3.02-1.17-.01-2.33-.03-3.5-.02-.92.06-1.84.05-2.77-.01-1.52,1.01-1.87,2.4-1.87.68,0,1.55.35,1.93.96.22.35.11,1.21.14,1.64.05.9.06,1.81.09,2.71.05,1.73.09,3.46.11,5.2.02,1.72.08,3.48-.03,5.2ZM17.83,24.27c0-.67-.01-1.34-.02-2.01,1.74-.07,3.49-.08,5.23-.1,2.03-.02,4.19.21,6.2.04,0,.67-.02,1.34-.02,2.01-3.78.2-7.6.01-11.39.06ZM34.7,19.08c-.03,1.17-.06,2.33-.03,3.5.03,1.66,0,3.31,0,4.97-.02,1.83.54,4.19-2.05,4.23-.43,0-1.23.17-1.64-.02-1.16-.51-.95-1.41-.97-2.36-.03-1.63-.03-3.26-.01-4.9.02-1.7.06-3.39.12-5.09.06-1.83-.49-4.99,2.15-4.97,1.57.01,2.17.53,2.43,2.18.12.79.04,1.66.02,2.46ZM37.9,26.33c-.02.53.04,1.19-.09,1.72-.33,1.29-1.14,1.22-2.29,1.24-.02-.82-.09-1.65-.08-2.41.02-1.43.03-2.86,0-4.29-.04-1.8.1-3.61.04-5.41.48.01.99,0,1.43.12.86.24.87.32.96,1.29.11,1.2.03,2.46.04,3.67.02,1.36.03,2.72-.02,4.07ZM38.76,24.34c-.03-.72-.07-1.43-.08-2.08,0-.04,0-.08,0-.13.18,0,.35,0,.53,0,.26,0,.27-.05.34.16.06.16,0,.44.01.61.01.22.04.44.06.66.01.18.02.36.02.53,0,.02-.02.12,0,.19-.03.01-.05.02-.08.02-.27,0-.53.02-.8.03Z"/>
        <path class="cls-1" d="M13.18,16.41c-.37.88-.25,1.99-.14,2.91.06.49.83.49.77,0-.1-.86-.23-1.89.11-2.7.19-.46-.55-.66-.74-.2Z"/>
        <path class="cls-1" d="M14.25,15.27c-.5,0-.5.77,0,.77s.5-.77,0-.77Z"/>
        <path class="cls-1" d="M31.03,16.06c-.27.36-.3.92-.35,1.36-.06.55-.09,1.11-.05,1.66.04.49.81.49.77,0-.04-.46-.02-.92.02-1.38.03-.38.03-.93.27-1.25.3-.4-.37-.78-.66-.39Z"/>
        <path class="cls-1" d="M32.13,15.07c-.5,0-.5.77,0,.77s.5-.77,0-.77Z"/>
      </g>
    </g>
  </g>
</svg>