<?xml version="1.0" encoding="UTF-8"?>
<svg id="Layer_2" data-name="Layer 2" xmlns="http://www.w3.org/2000/svg" viewBox="0 0 46.98 46.98">
  <defs>
    <style>
      .cls-1 {
        fill: #895b4e;
      }

      .cls-2, .cls-3 {
        isolation: isolate;
      }

      .cls-3 {
        fill: #ffebdd;
      }
    </style>
  </defs>
  <g id="icon">
    <g>
      <rect class="cls-3" x="0" width="46.98" height="46.98" rx="8.43" ry="8.43"/>
      <g class="cls-2">
        <path class="cls-1" d="M34.46,26.7c.03-4.31.64-8.66-.09-12.94-.29-1.72-.89-1.6-2.58-1.63-1.64-.02-3.29-.01-4.93-.07-.02,0-.03,0-.04,0-.25-.15-.52-.3-.78-.47-.85-.56-.39-.6-.27-1.5.07-.54.04-1.13-.29-1.59-.76-1.04-2.79-.98-3.74-.26-1.09.82-.34,1.68-.59,2.66-.11.44-1.05.72-1.58,1.12-.02,0-.04-.01-.06-.01-1.83.04-4.4-.36-6.13.34-.78.32-.91.79-.98,1.58-.12,1.38-.07,2.8-.1,4.18-.08,3.69-.06,7.38-.02,11.06.02,1.42.04,2.83.06,4.25.02,1.1-.19,2.52.3,3.54.98,2.01,3.47,1.63,5.31,1.65,3.25.04,6.49-.13,9.73-.11,1.29.01,2.57-.13,3.85-.12,1.06,0,1.83.1,2.46-.89.79-1.25.43-3.18.44-4.58.02-2.07,0-4.14,0-6.22ZM21.76,11.58c.14-.07.19-.25.16-.39-.21-1.01-.56-2.12.72-2.61.77-.3,2.1-.21,2.44.71.21.56-.13,1.33-.37,1.82-.06.13-.07.32.05.42.79.66,1.98,1.03,2.6,1.86.25.34.46.79.34,1.26-.32,1.31-1.71,1.11-2.78,1.12-1.33.01-2.65.05-3.98.04-.34,0-.93.09-1.24-.03-.73-.29-.51-.36-.61-.96-.05-.32,0-.68,0-1.01.14-1.14,1.75-1.78,2.68-2.22ZM28.49,14.95c.65.02,1.3.09,1.94.08.23,0,.74.08.7.02.1.14.01.69.02.86.02,1.27.02,2.55.03,3.83.02,3.64.03,7.28.02,10.93,0,1.28,0,2.56-.04,3.84,0,.12.06.75-.03.84-.32.31-2.11.02-2.6.06-1.45.12-2.96.24-4.42.2-1.66-.04-3.27.08-4.94.09-1.03,0-2.87.27-3.3-.72-.26-.6-.18-1.55-.21-2.19-.19-3.3-.04-6.6-.14-9.9-.01-1.49.04-2.98.05-4.47,0-.6-.37-2.68-.05-3.19.28-.44,2.01-.33,2.84-.28.01.62.13,1.23.63,1.48.9.44,2.67.06,3.63.05,1.21-.01,2.42.02,3.64-.03,1.54-.05,2.24-.31,2.23-1.48ZM33.85,23.62c-.15,3.31-.07,6.62-.1,9.93-.02,1.81.38,4.02-1.96,4.15-1.09.06-2.19.12-3.28.12-2.41,0-4.8.04-7.2.09-1.35.03-2.7.02-4.05,0-.69-.01-1.59.11-2.27-.06-2.03-.5-1.9-2.17-1.93-3.81-.02-1.28-.04-2.56-.06-3.85-.04-2.87-.06-5.73-.04-8.6,0-1.58.03-3.16.08-4.75.02-.84-.23-2.43.11-3.2.55-1.25,3.93-1.01,5.71-.95-.21.27-.36.57-.43.94-.03.05-.04.1-.04.17,0,.13,0,.28,0,.43-.91-.06-2.47-.24-3.11.13-.67.38-.43,1.25-.41,1.93.07,2.2-.06,4.39-.04,6.59.11,3.49-.07,6.99.18,10.48.06.82-.02,2.1.67,2.66.34.27,1.49.28,1.97.32.92.08,1.84.06,2.76,0,1.85-.11,3.7-.18,5.54-.15,1.5.03,2.98-.07,4.48-.13.53-.02,1.11,0,1.38-.53.34-.64.08-2.11.08-2.79.04-4.13.02-8.26,0-12.39,0-1.62.05-3.25-.04-4.86-.08-1.57-2.11-1.27-3.41-1.25-.02-.13-.05-.26-.07-.4-.1-.45-.3-.78-.57-1.06.61.01,1.21.02,1.82.02.63,0,1.26.01,1.89.02,1.24.02,1.81-.14,2.2,1.12.9,2.93.29,6.67.15,9.67Z"/>
        <path class="cls-1" d="M24.1,19.73c-1.1-.06-2.08-.15-3.18-.04-.44.05-.45.74,0,.7,1.11-.11,2.08-.04,3.18.04.52.03.98-.03,1.49-.09.77-.09,1.46,0,2.23.04.45.02.45-.68,0-.7-.54-.02-1.08-.12-1.63-.11-.71.02-1.38.2-2.1.16Z"/>
        <path class="cls-1" d="M20.8,23.46c-.45.01-.45.71,0,.7,1.24-.04,2.48-.06,3.72.01,1.2.06,2.24,0,3.42-.08.45-.03.45-.73,0-.7-2.38.16-4.75-.01-7.14.07Z"/>
        <path class="cls-1" d="M28.03,27.18c-1.25.05-2.5.08-3.75.07-1.26-.02-2.42-.16-3.65.17-.43.11-.25.79.19.67,1.28-.34,2.59-.15,3.91-.13,1.1,0,2.2-.02,3.3-.07.45-.02.45-.72,0-.7Z"/>
        <path class="cls-1" d="M28.01,31.02c-2.46.32-4.88-.45-7.3,0-.44.08-.25.75.19.67,2.34-.43,4.73.34,7.12.02.44-.06.44-.76,0-.7Z"/>
        <path class="cls-1" d="M19.48,19.8c-.21-.02-.42-.03-.64-.02-.45.02-.45.72,0,.7.21,0,.42,0,.64.02.45.05.44-.65,0-.7Z"/>
        <path class="cls-1" d="M18.79,24.17s.32-.02.26-.09c0,0,0,0,0,0,.15.12.4.14.54-.06,0,0,0,0,0,0,.1-.13.04-.32-.05-.42-.2-.23-.68-.15-.94-.09-.44.11-.25.78.19.67Z"/>
        <path class="cls-1" d="M19.36,27.48c-.21,0-.42,0-.62,0-.45,0-.45.69,0,.7.21,0,.42,0,.62,0,.45,0,.45-.69,0-.7Z"/>
        <path class="cls-1" d="M19.33,31.05c-.19,0-.38.01-.57.02-.45.02-.45.71,0,.7.19,0,.38-.01.57-.02.45-.02.45-.71,0-.7Z"/>
        <path class="cls-1" d="M23.4,10.22h.01c.45,0,.45-.7,0-.7h-.01c-.45,0-.45.7,0,.7Z"/>
        <path class="cls-1" d="M20.47,14.74c.02-.3-.08-.62.1-.89.17-.25.42-.41.68-.54.4-.19.05-.79-.35-.6-.38.18-.71.45-.94.8-.26.39-.15.79-.19,1.23-.04.45.66.44.7,0Z"/>
        <path class="cls-1" d="M21.94,12.91c.45,0,.45-.7,0-.7s-.45.7,0,.7Z"/>
      </g>
    </g>
  </g>
</svg>