<?xml version="1.0" encoding="UTF-8"?>
<svg id="Layer_2" data-name="Layer 2" xmlns="http://www.w3.org/2000/svg" viewBox="0 0 46.98 46.98">
  <defs>
    <style>
      .cls-1 {
        fill: #7c5e1d;
      }

      .cls-2, .cls-3 {
        isolation: isolate;
      }

      .cls-3 {
        fill: #fff099;
      }
    </style>
  </defs>
  <g id="icon">
    <g>
      <rect class="cls-3" x="0" width="46.98" height="46.98" rx="8.43" ry="8.43"/>
      <g class="cls-2">
        <path class="cls-1" d="M37.24,24.51c-2.01-2.52-7.29-2.95-8.65.24-.6-.86-1.57-1.49-2.51-1.82-2.43-.86-4.72-.18-6.46,1.51,0-.12.02-.24.02-.36,0-2.11-.06-4.56.71-6.59.57.57,1.62.81,2.29.78,1.71-.08,3.32-.22,4.01-2.03.64-1.7-.1-3.67-1.28-4.93-.83-.89-1.15-.92-2.36-.84-1.19.07-2.39.13-3.56.34-1.97.35-3.6,3.37-4.54,4.98-2.82,4.8-5.41,10.08-5.83,15.71,0,.12.07.24.17.3,7.45,4.9,18.45,5.98,26.24,1.11,2.83-1.77,3.98-5.6,1.75-8.41ZM34.91,32.44c-4.07,2.38-9.08,3.17-13.74,2.77-2.37-.21-4.72-.75-6.94-1.6-1.21-.47-2.39-1.04-3.5-1.7-1.42-.84-.74-2.58-.41-3.97.65-2.69,1.76-5.25,3.01-7.72,1.22-2.41,2.45-4.86,4.18-6.95.5-.6.97-1.22,1.68-1.57.88-.44,2.01-.42,2.98-.49.88-.06,1.78-.19,2.54.41.64.51,1.12,1.45,1.32,2.23.26,1.01.18,2.45-.74,3.13-.65.48-1.55.49-2.34.57-.21.02-.51.09-.72.06-.63-.08-1.74-.77-1.18-1.56.24-.34,1.26-.5,1.64-.49.45.01.45-.69,0-.7-.84-.02-2.63.47-2.75,1.53-.01.09-.01.18,0,.26-.73,1.57-.86,3.37-.94,5.08-.04.94.02,1.89-.05,2.82-.13,1.74-1.33,3.12-2.53,4.33-.32.32.18.81.49.49,1.16-1.17,2.11-2.31,2.51-3.73.03-.02.06-.03.08-.07,1.66-1.99,4.02-2.9,6.52-1.91.93.37,1.97,1.09,2.31,2.08.1.3.61.37.67,0,.74-3.95,6.76-2.87,8.17.04,1.26,2.61.11,5.26-2.27,6.65Z"/>
        <path class="cls-1" d="M27.31,29.34c-1.12.99-2.14,1.41-3.63,1.32-1.43-.09-2.74-.29-3.95-1.11-.37-.25-.72.35-.35.6,1.42.96,3.07,1.18,4.75,1.22,1.49.04,2.57-.57,3.67-1.55.34-.3-.16-.79-.49-.49Z"/>
        <path class="cls-1" d="M20.78,26.66c.32-.63.91-.99,1.5-1.34.38-.23.03-.84-.35-.6-.68.41-1.38.86-1.75,1.6-.2.4.4.75.6.35Z"/>
        <path class="cls-1" d="M23.05,24.95c.45,0,.45-.7,0-.7s-.45.7,0,.7Z"/>
      </g>
    </g>
  </g>
</svg>