<?xml version="1.0" encoding="UTF-8"?>
<svg id="Layer_2" data-name="Layer 2" xmlns="http://www.w3.org/2000/svg" viewBox="0 0 46.98 46.98">
  <defs>
    <style>
      .cls-1 {
        fill: #8570a0;
      }

      .cls-2 {
        fill: #f2ebfb;
      }

      .cls-2, .cls-3 {
        isolation: isolate;
      }
    </style>
  </defs>
  <g id="icon">
    <g>
      <rect class="cls-2" width="46.98" height="46.98" rx="8.43" ry="8.43"/>
      <g class="cls-3">
        <path class="cls-1" d="M30.32,23.68c0-.91.22-2.23-.2-3.09-.5-1-.94-1.52-.28-2.63.18-.3.48-.43.61-.78.51-1.38-.28-3.17-.97-4.32-.31-.51-.63-1.02-1.07-1.43-.87-.81-1.08-1.09-1.08-2.41.22,0,.43,0,.65-.02.5-.02.5-.8,0-.78-.09,0-.18,0-.27,0,.06-.92.32-2.72-.4-3.15-.78-.47-2.67-.16-3.54-.15-1.09.01-2.48-.15-3.54.14-1.2.33-.8,2.18-.8,3.24-.05,0-.11,0-.16,0-.5-.01-.5.77,0,.78.18,0,.35,0,.53,0,0,1.05,0,1.38-.76,2.08-.33.31-.65.57-.93.94-.91,1.18-1.53,2.55-1.55,4.05-.02,1.07.2,1.13.71,1.93,1.16,1.79-.46,1.98-.74,3.44-.38,2.02,0,4.49.02,6.56.02,1.52.04,3.03.05,4.55.01,1.36-.2,2.91.03,4.25.38,2.19,2.56,2.14,4.33,2.25,1.74.11,3.48,0,5.23,0,1.39-.01,2.52,0,3.46-1.16,1.39-1.72.71-5.01.7-7.05-.01-2.41,0-4.82-.03-7.22ZM17.31,23.15c0-.19,0-.35,0-.5,4.07-.27,8.14-.02,12.22-.15.06,3.92.04,7.84.06,11.76,0,0,0,.01,0,.02-2.02.46-3.97.14-6.02.17-2.08.03-4.11.19-6.19.08,0-3.79-.07-7.58-.08-11.37ZM20.3,6.39c.22-.79.31-.52.86-.61.83-.14,1.78-.06,2.62-.07.72,0,1.72-.17,2.41.02,1.04.28.8,1.56.75,2.53-2.24.07-4.48.09-6.72.05.01-.61-.07-1.37.08-1.92ZM18.57,18.54c-.17-.51-.59-.7-.88-1.12-.39-.57-.39-.98-.32-1.7.18-1.88,1.37-3.57,3.01-4.45.12-.06.19-.2.19-.34,0-.61,0-1.23,0-1.84,1.99.03,3.98.01,5.98-.05,0,.63,0,1.26,0,1.89,0,.13.07.27.19.34,1.38.74,2.4,2.09,2.83,3.62.23.82.27,1.68-.18,2.41-.22.36-.57.59-.75,1-.26.59-.24,1.11.01,1.69.19.45.68.76.82,1.23.04.14.05.32.05.5-4.05.14-8.11-.11-12.16.15.09-.42.29-.78.71-1.38.44-.64.74-1.16.47-1.94ZM27.32,38.35c-1.33.3-3.19.04-4.55.04-1.01,0-2.07,0-3.07-.14-.58-.09-1.46-.13-1.87-.56-.52-.54-.44-1.57-.44-2.28,0-.04,0-.08,0-.11,2.29.12,4.55-.12,6.84-.07,1.83.03,3.57.21,5.36-.16-.05,1.5-.37,2.85-2.27,3.28Z"/>
        <path class="cls-1" d="M21.42,29.4c.33-.01.65-.04.97-.06-.26,1.13-.46,2.26-.94,3.33-.16.36.31.85.61.47.02-.03.04-.05.06-.08,0,0,0,0,0,0,0,0,0,0,0,0,1.36-1.73,2.61-3.53,3.98-5.26.21-.27.08-.64-.28-.66-.51-.03-1.02-.05-1.53-.06.11-.91.19-1.82.28-2.73.02-.07.02-.15,0-.21-.04-.18-.21-.26-.38-.25-.12,0-.25.04-.34.17-1.03,1.52-1.84,3.17-2.78,4.75-.15.25.04.6.34.59ZM23.27,29.02c.06-.22-.12-.52-.38-.49s-.52.03-.78.05c.51-.9,1.01-1.81,1.54-2.71-.05.53-.11,1.05-.17,1.58-.03.21.2.38.39.39.4.02.81.03,1.21.05-.76.98-1.5,1.97-2.24,2.96.14-.61.27-1.22.43-1.83Z"/>
        <path class="cls-1" d="M21.63,7.38v-.7c0-.5-.78-.5-.78,0v.7c0,.5.78.5.78,0Z"/>
        <path class="cls-1" d="M23.16,7.38v-.7c0-.5-.78-.5-.78,0v.7c0,.5.78.5.78,0Z"/>
        <path class="cls-1" d="M24.69,7.38v-.7c0-.5-.78-.5-.78,0v.7c0,.5.78.5.78,0Z"/>
        <path class="cls-1" d="M26.22,7.38v-.7c0-.5-.78-.5-.78,0v.7c0,.5.78.5.78,0Z"/>
        <path class="cls-1" d="M19.44,16.54c0-1.24.35-2.47,1.48-3.13.43-.25.04-.93-.39-.67-1.37.8-1.86,2.29-1.86,3.81,0,.5.78.5.78,0Z"/>
        <path class="cls-1" d="M21.55,12.89c.5,0,.5-.78,0-.78s-.5.78,0,.78Z"/>
      </g>
    </g>
  </g>
</svg>