<?xml version="1.0" encoding="UTF-8"?>
<svg id="Layer_2" data-name="Layer 2" xmlns="http://www.w3.org/2000/svg" viewBox="0 0 46.98 46.98">
  <defs>
    <style>
      .cls-1 {
        fill: #fffbe0;
      }

      .cls-1, .cls-2 {
        isolation: isolate;
      }

      .cls-3 {
        fill: #846a21;
      }
    </style>
  </defs>
  <g id="icon">
    <g>
      <rect class="cls-1" width="46.98" height="46.98" rx="8.43" ry="8.43"/>
      <g class="cls-2">
        <path class="cls-3" d="M39.19,26.13s0-.07-.02-.1c0-.02-.01-.04-.02-.05,0,0,0,0,0,0-1.53-2.03-3.09-4.04-4.75-5.96-1.5-1.74-3.14-3.8-5.1-5.05-2.87-1.82-6.63-.99-10.03,0,0,0,0-.02,0-.03-.51-.89-1.29-1.42-2.35-1.12-.43.12-.85.43-.95.9-.09.41.19.78.48,1.07-6.25.61-7.75,11.31-1.7,14.54,1.8.96,3.36,1.48,5.38.8.09-.03.17-.07.25-.11.05,0,.1,0,.16-.04,1.46-.75,2.96-1.42,4.42-2.17,0,0,0,0,.01,0,2.06,1.87,4.18,3.68,6.38,5.37.13.1.25.07.34,0,2.52-1.2,4.81-2.77,7.34-3.95.1-.04.17-.18.16-.28-.07-1.27,0-2.54,0-3.81,0,0,0,0,0,0ZM29.7,16.08c3.35,2.81,6.09,6.49,8.7,9.97-1.06.71-2.18,1.24-3.35,1.74-.51.22-1.02.43-1.52.66-.34.16-1.46,1-1.8.91-.51-.13-1.45-1.63-1.81-2.03-.77-.86-1.54-1.73-2.3-2.6-1.53-1.74-3.06-3.5-4.5-5.32-1.1-1.38-2.04-2.66-3.78-3.25-.34-.12-.67-.2-1-.27,3.82-1.15,8.28-2.41,11.36.17ZM16.67,14.7c.16-.32.79-.35,1.08-.3.38.06.67.42.88.75-.51.15-1.01.3-1.49.45-.02-.03-.03-.06-.06-.09-.2-.19-.56-.49-.4-.81ZM12.8,27.89c-2.32-3.01-1.84-9.08,1.89-10.88.25-.12.51-.22.77-.3.03,0,.05,0,.08,0,.12-.03.24-.06.37-.1,1.82-.39,3.85.08,5.19,1.36,1.15,1.1,2.06,2.56,3.08,3.78,2.34,2.79,4.79,5.49,7.21,8.21-.03,1.1-.11,2.2-.17,3.31-2.72-2.13-5.33-4.43-7.84-6.8-.05-.05-.11-.07-.17-.08-.13-.04-.27-.01-.34.14h0s0,.02,0,.03c0,.02-.01.03-.02.05,0,0,0,0,0,0-.65,2.43-2.02,4.36-4.83,4.24-1.87-.08-4.1-1.51-5.21-2.95ZM22.41,29.34c.4-.61.68-1.31.91-2.06.38.35.76.71,1.14,1.06-.68.34-1.36.68-2.05,1.01ZM36.67,30.71c-1.61.92-3.16,1.83-4.81,2.65.06-1.11.15-2.22.18-3.34,2.08-1.28,4.44-1.98,6.5-3.29-.01.74-.03,1.47-.02,2.21,0,1.1-.96,1.27-1.84,1.77Z"/>
        <path class="cls-3" d="M23.72,19.04s0,0,0,0c.01.03.02.06.05.09.74.87,1.01,1.72,2.14,1.29,1.67-.64,3.42-1.11,5.04-1.87.19-.09.2-.37.07-.51-.84-.87-1.22-1.69-2.38-1.25-1.58.6-3.22,1.06-4.74,1.81,0,0-.01,0-.02,0-.02,0-.03.01-.05.02-.16.08-.19.24-.14.37,0,.02.01.03.02.05ZM28.94,17.37c.53-.05.96.38,1.31.78-1.29.54-2.64.87-3.93,1.4-.21.08-.82.47-.99.43-.18-.04-.56-.56-.83-.94,1.06-.49,2.17-.83,3.27-1.22.35-.12.8-.41,1.17-.44Z"/>
        <path class="cls-3" d="M17.78,19.64c-2.2-.36-3.15,1.12-3.41,3.05-.3,2.23.17,3.9,2.44,4.67,4.47,1.5,5.22-6.84.97-7.71ZM16.98,26.73c-1.66-.49-2.16-1.67-2.06-3.24.11-1.6.53-3.58,2.68-3.22,1.6.33,2.35,1.85,2.32,3.35-.03,1.79-.75,3.77-2.95,3.12Z"/>
        <path class="cls-3" d="M32.25,28.42c1.59-.84,3.21-1.59,4.89-2.24.38-.15.22-.77-.17-.62-1.73.67-3.4,1.44-5.04,2.3-.37.19-.04.75.33.56Z"/>
        <path class="cls-3" d="M14.36,18.14c-1.62,1.19-2.29,3.01-2.32,4.97,0,.42.64.42.65,0,.03-1.72.57-3.37,2-4.42.33-.24.01-.8-.33-.56Z"/>
        <path class="cls-3" d="M15.51,18.15c.42,0,.42-.65,0-.65s-.42.65,0,.65Z"/>
      </g>
    </g>
  </g>
</svg>